<?xml version="1.0" encoding="UTF-8"?>
<svg width="50px" height="50px" viewBox="0 0 50 50" version="1.1" xmlns="http://www.w3.org/2000/svg" xmlns:xlink="http://www.w3.org/1999/xlink">
    <!-- Generator: Sketch 49.1 (51147) - http://www.bohemiancoding.com/sketch -->
    <title>Instagram_Color</title>
    <desc>Created with Sketch.</desc>
    <defs>
        <path d="M0,25 C0,11.1928806 11.1928806,0 25,0 C38.8071194,0 50,11.1928806 50,25 C50,38.8071194 38.8071194,50 25,50 C11.1928806,50 0,38.8071194 0,25 Z" id="path-1"></path>
        <linearGradient x1="100%" y1="100%" x2="12.6506395%" y2="20.2559548%" id="linearGradient-3">
            <stop stop-color="#E30000" stop-opacity="0.985252491" offset="0%"></stop>
            <stop stop-color="#D84994" offset="100%"></stop>
        </linearGradient>
        <linearGradient x1="0%" y1="115.474745%" x2="89.6188001%" y2="31.4517789%" id="linearGradient-4">
            <stop stop-color="#E1D6BC" offset="0%"></stop>
            <stop stop-color="#F4A315" offset="35.8426662%"></stop>
            <stop stop-color="#DE404C" offset="68.1865528%"></stop>
            <stop stop-color="#B4348F" offset="100%"></stop>
        </linearGradient>
        <linearGradient x1="62.4507195%" y1="39.4613561%" x2="33.0488378%" y2="-14.0959152%" id="linearGradient-5">
            <stop stop-color="#5759CC" stop-opacity="0" offset="0%"></stop>
            <stop stop-color="#42AADB" offset="100%"></stop>
        </linearGradient>
        <path d="M0,25 C0,11.1928806 11.1928806,0 25,0 C38.8071194,0 50,11.1928806 50,25 C50,38.8071194 38.8071194,50 25,50 C11.1928806,50 0,38.8071194 0,25 Z" id="path-6"></path>
    </defs>
    <g id="Page-1" stroke="none" stroke-width="1" fill="none" fill-rule="evenodd">
        <g id="1_Main_Page" transform="translate(-1175.000000, -1610.000000)">
            <g id="Group-15" transform="translate(0.000000, 1294.000000)">
                <g id="Group-13" transform="translate(213.000000, 316.000000)">
                    <g id="Instagram" transform="translate(962.000000, 0.000000)">
                        <mask id="mask-2" fill="white">
                            <use xlink:href="#path-1"></use>
                        </mask>
                        <use id="back" fill="#517FA4" xlink:href="#path-1"></use>
                        <g id="Path" mask="url(#mask-2)">
                            <use fill="url(#linearGradient-3)" xlink:href="#path-6"></use>
                            <use fill="url(#linearGradient-4)" xlink:href="#path-6"></use>
                            <use fill="url(#linearGradient-5)" xlink:href="#path-6"></use>
                        </g>
                        <path d="M25.00125,11.6666667 C21.3801012,11.6666667 20.925652,11.6825002 19.503415,11.7472231 C18.0839557,11.8122237 17.1150568,12.0369483 16.2672701,12.366674 C15.3903166,12.7072331 14.6464199,13.1627934 13.9053011,13.90419 C13.1636267,14.6453088 12.7080664,15.3892054 12.3663962,16.2658812 C12.0358372,17.1139456 11.8108348,18.0831224 11.7469453,19.5020261 C11.6833335,20.9242631 11.6666667,21.3789901 11.6666667,25.0001389 C11.6666667,28.6212877 11.6827779,29.074348 11.7472231,30.496585 C11.8125015,31.9160443 12.0372261,32.8849432 12.366674,33.7327299 C12.7075108,34.6096834 13.1630711,35.3535801 13.9044678,36.0946989 C14.6453088,36.8363733 15.3892054,37.2930447 16.2656035,37.6336038 C17.1139456,37.9633295 18.0831224,38.188054 19.5023038,38.2530547 C20.9245409,38.3177776 21.3787123,38.3336111 24.9995833,38.3336111 C28.6210099,38.3336111 29.0740702,38.3177776 30.4963073,38.2530547 C31.9157665,38.188054 32.8857766,37.9633295 33.7341188,37.6336038 C34.6107946,37.2930447 35.3535801,36.8363733 36.0944211,36.0946989 C36.8360955,35.3535801 37.2916558,34.6096834 37.633326,33.7330076 C37.9611072,32.8849432 38.1861096,31.9157665 38.2527769,30.4968628 C38.3166665,29.0746258 38.3333333,28.6212877 38.3333333,25.0001389 C38.3333333,21.3789901 38.3166665,20.9245409 38.2527769,19.5023038 C38.1861096,18.0828446 37.9611072,17.1139456 37.633326,16.266159 C37.2916558,15.3892054 36.8360955,14.6453088 36.0944211,13.90419 C35.3527467,13.1625156 34.6110723,12.7069553 33.7332854,12.366674 C32.8832766,12.0369483 31.913822,11.8122237 30.4943628,11.7472231 C29.0721258,11.6825002 28.6193433,11.6666667 24.9970833,11.6666667 L25.00125,11.6666667 Z M23.8051264,14.0694695 C24.1601301,14.0689139 24.5562454,14.0694695 25.00125,14.0694695 C28.5612871,14.0694695 28.9832359,14.0822474 30.3890839,14.1461369 C31.6890975,14.205582 32.3946604,14.4228065 32.8646653,14.6053084 C33.486894,14.8469776 33.9305097,15.1358695 34.3969034,15.602541 C34.863575,16.0692125 35.1524669,16.5136616 35.3946916,17.1358903 C35.5771935,17.6053396 35.7946958,18.3109025 35.8538631,19.6109161 C35.9177526,21.0164863 35.9316416,21.4387129 35.9316416,24.9970833 C35.9316416,28.5554537 35.9177526,28.9776803 35.8538631,30.3832505 C35.794418,31.6832641 35.5771935,32.388827 35.3946916,32.8582763 C35.1530224,33.480505 34.863575,33.9235652 34.3969034,34.3899589 C33.9302319,34.8566305 33.4871717,35.1455223 32.8646653,35.3871915 C32.3952159,35.5705268 31.6890975,35.7871957 30.3890839,35.8466408 C28.9835137,35.9105303 28.5612871,35.9244194 25.00125,35.9244194 C21.4409351,35.9244194 21.0189863,35.9105303 19.6134161,35.8466408 C18.3134026,35.7866401 17.6078397,35.5694157 17.137557,35.3869138 C16.5153283,35.1452446 16.0708792,34.8563527 15.6042077,34.3896811 C15.1375362,33.9230096 14.8486443,33.4796717 14.6064195,32.8571652 C14.4239176,32.3877158 14.2064153,31.6821529 14.1472481,30.3821394 C14.0833585,28.9765692 14.0705806,28.5543426 14.0705806,24.9937499 C14.0705806,21.4331573 14.0833585,21.0131529 14.1472481,19.6075827 C14.2066931,18.3075692 14.4239176,17.6020063 14.6064195,17.1320014 C14.8480887,16.5097727 15.1375362,16.0653236 15.6042077,15.5986521 C16.0708792,15.1319805 16.5153283,14.8430886 17.137557,14.6008639 C17.6075619,14.4175287 18.3134026,14.2008597 19.6134161,14.1411369 C20.8434289,14.0855808 21.3201006,14.0689139 23.8051264,14.0661361 L23.8051264,14.0694695 Z M32.1185464,16.2833814 C31.2352038,16.2833814 30.5185297,16.9992222 30.5185297,17.8828425 C30.5185297,18.7661851 31.2352038,19.4828592 32.1185464,19.4828592 C33.0018889,19.4828592 33.718563,18.7661851 33.718563,17.8828425 C33.718563,16.9995 33.0018889,16.2828259 32.1185464,16.2828259 L32.1185464,16.2833814 Z M25.00125,18.1528453 C21.2198217,18.1528453 18.1539565,21.2187106 18.1539565,25.0001389 C18.1539565,28.7815672 21.2198217,31.8460435 25.00125,31.8460435 C28.7826783,31.8460435 31.8474324,28.7815672 31.8474324,25.0001389 C31.8474324,21.2187106 28.7824005,18.1528453 25.0009722,18.1528453 L25.00125,18.1528453 Z M25.00125,20.5556481 C27.45572,20.5556481 29.4457408,22.5453911 29.4457408,25.0001389 C29.4457408,27.4546089 27.45572,29.4446296 25.00125,29.4446296 C22.5465022,29.4446296 20.5567593,27.4546089 20.5567593,25.0001389 C20.5567593,22.5453911 22.5465022,20.5556481 25.00125,20.5556481 L25.00125,20.5556481 Z" id="Shape" fill="#FFFFFF" mask="url(#mask-2)"></path>
                    </g>
                </g>
            </g>
        </g>
    </g>
</svg>