<?xml version="1.0" encoding="UTF-8"?>
<svg width="50px" height="50px" viewBox="0 0 50 50" version="1.1" xmlns="http://www.w3.org/2000/svg" xmlns:xlink="http://www.w3.org/1999/xlink">
    <!-- Generator: Sketch 49 (51002) - http://www.bohemiancoding.com/sketch -->
    <title>Medium_Color</title>
    <desc>Created with Sketch.</desc>
    <defs></defs>
    <g id="Page-1" stroke="none" stroke-width="1" fill="none" fill-rule="evenodd">
        <g id="6_Contacts" transform="translate(-855.000000, -1162.000000)">
            <g id="Group-15" transform="translate(0.000000, 846.000000)">
                <g id="Group-13" transform="translate(213.000000, 316.000000)">
                    <g id="Medium" transform="translate(642.000000, 0.000000)">
                        <path d="M0,25 C0,11.1928806 11.1928806,0 25,0 C38.8071194,0 50,11.1928806 50,25 C50,38.8071194 38.8071194,50 25,50 C11.1928806,50 0,38.8071194 0,25 Z" id="back" fill="#FFFFFF"></path>
                        <g id="Group" transform="translate(12.500000, 14.166667)">
                            <path d="M16.8974004,0.0246772318 C16.7704668,-0.0392471203 16.6666667,0.0253701787 16.6666667,0.168290478 L16.6666667,17.7445423 L24.3077987,21.5926497 C24.6885137,21.7844228 25,21.5904842 25,21.1617233 L25,4.24273167 C25,4.158452 24.9527009,4.08136166 24.8778822,4.04368267 L16.8974004,0.0246772318" id="Fill-6" fill="#32FC8D"></path>
                            <path d="M8.33333333,13.3619814 L16.5707743,0.131697919 C16.6455195,0.0117021264 16.8109959,-0.0349296906 16.938538,0.028100128 L24.8955765,3.96037507 C24.9946895,4.00931286 25.0300314,4.13178543 24.9719635,4.22504906 L16.7066119,17.5 L8.33333333,13.3619814" id="Fill-7" fill="#0BE370"></path>
                            <path d="M0.540928056,0.114032223 C0.0209617316,-0.141794209 -0.155208461,0.0475398904 0.149477887,0.53483246 L8.13113273,13.2997132 L16.6666667,17.5 L8.186274,3.93738469 C8.1502472,3.87964819 8.09845316,3.83309489 8.03696977,3.80275289 L0.540928056,0.114032223" id="Fill-9" fill="#14C767"></path>
                            <path d="M8.33333333,21.1595821 C8.33333333,21.5901612 8.02176426,21.7849221 7.64105316,21.5923358 L0.461548781,17.9612925 C0.207684052,17.8329017 0,17.4930486 0,17.2059959 L0,0.338080475 C0,0.051027727 0.207684052,-0.0788418952 0.461548781,0.0495489705 L8.23056628,3.97877918 C8.29351647,4.01061594 8.33333333,4.07568123 8.33333333,4.1469225 L8.33333333,21.1595821" id="Fill-10" fill="#00AB6C"></path>
                        </g>
                    </g>
                </g>
            </g>
        </g>
    </g>
</svg>