<?xml version="1.0" encoding="UTF-8"?>
<svg width="50px" height="50px" viewBox="0 0 50 50" version="1.1" xmlns="http://www.w3.org/2000/svg" xmlns:xlink="http://www.w3.org/1999/xlink">
    <!-- Generator: Sketch 49.1 (51147) - http://www.bohemiancoding.com/sketch -->
    <title>Steam</title>
    <desc>Created with Sketch.</desc>
    <defs></defs>
    <g id="Page-1" stroke="none" stroke-width="1" fill="none" fill-rule="evenodd">
        <g id="1_Main_Page" transform="translate(-695.000000, -1610.000000)">
            <g id="Group-15" transform="translate(0.000000, 1294.000000)">
                <g id="Group-13" transform="translate(213.000000, 316.000000)">
                    <g id="Steam" transform="translate(482.000000, 0.000000)">
                        <circle id="Oval-2" fill="#000000" cx="25" cy="25" r="25"></circle>
                        <g id="Group-11" transform="translate(10.000000, 12.500000)" fill-rule="nonzero">
                            <path d="M22.2222005,14.7222005 C18.2222005,14.7222005 15,11.5 15,7.5 C15,3.5 18.2222005,0.277799479 22.2222005,0.277799479 C26.2222005,0.277799479 29.4444661,3.5 29.4444661,7.5 C29.4444661,11.5 26.2222005,14.7222005 22.2222005,14.7222005" id="Shape" fill="#FFFFFF"></path>
                            <path d="M22.2222005,11.9444661 C19.7777344,11.9444661 17.7777344,9.94446615 17.7777344,7.5 C17.7777344,5.05553385 19.7777344,3.05553385 22.2222005,3.05553385 C24.6666667,3.05553385 26.6666667,5.05553385 26.6666667,7.5 C26.6666667,9.94446615 24.6666667,11.9444661 22.2222005,11.9444661 Z M22.2222005,4.16666667 C20.3888672,4.16666667 18.8888672,5.66666667 18.8888672,7.5 C18.8888672,9.33333333 20.3888672,10.8333333 22.2222005,10.8333333 C24.0555339,10.8333333 25.5555339,9.33333333 25.5555339,7.5 C25.5555339,5.66666667 24.0555339,4.16666667 22.2222005,4.16666667 Z" id="Shape" fill="#000000"></path>
                            <path d="M10.5555339,23.0555339 C8.94440104,23.0555339 7.55553385,22.0555339 6.94440104,20.5555339 L6.4999349,19.3888672 L8.66660156,20.2222005 C9.61106771,20.5555339 10.6666016,20.1666667 10.9999349,19.2777344 C11.3332682,18.3888672 10.7777344,17.3888672 9.83326823,17.0555339 L7.77773438,16.1666667 L8.88886719,15.6111328 C9.38886719,15.3889323 9.94440104,15.2222656 10.5555339,15.2222656 C12.7222005,15.2222656 14.444401,16.9444661 14.444401,19.1111328 C14.444401,21.2777995 12.7222005,23.0555339 10.5555339,23.0555339 Z M8.94446615,21.3888672 C9.38893229,21.7222005 9.94446615,21.944401 10.555599,21.944401 C12.1111328,21.944401 13.3333984,20.7222005 13.3333984,19.1666016 C13.3333984,17.7777344 12.3333984,16.6110677 11.0000651,16.444401 C12.0000651,17.2222005 12.4445313,18.4999349 12.055599,19.6666016 C11.6111328,20.8888672 10.2777995,21.5555339 8.94446615,21.3888672 Z" id="Shape" fill="#000000"></path>
                            <g id="Group" transform="translate(0.546875, 5.664062)" fill="#FFFFFF">
                                <path d="M10.453125,6.28040365 C14.0642578,6.50260417 17.0086589,9.39153646 17.2309245,13.0582031 L23.2309245,8.8360026 C22.7864583,8.94713542 22.2864583,9.00266927 21.7864583,9.00266927 C17.7864583,9.00266927 14.5642578,5.78046875 14.5642578,1.78046875 C14.5642578,1.16933594 14.6753906,0.558268229 14.7864583,0.00266927083 L10.453125,6.28040365 Z" id="Shape"></path>
                                <path d="M10.0086589,7.39147135 C8.67532552,7.39147135 7.56419271,7.72480469 6.56419271,8.44700521 L9.84199219,9.8358724 C11.6197917,10.5025391 12.6197917,12.4470052 11.953125,14.1692057 C11.453125,15.5025391 10.2309245,16.3358724 8.73092448,16.3358724 C8.28645833,16.3358724 7.89759115,16.2803385 7.453125,16.1136719 L4.00865885,14.7248047 C4.73085938,17.4470052 7.11979167,19.6136719 10.0086589,19.6136719 C13.397526,19.6136719 16.1197917,16.8914714 16.1197917,13.5025391 C16.1197917,10.1136068 13.3975911,7.39147135 10.0086589,7.39147135" id="Shape"></path>
                                <path d="M0.00865885417,6.8359375 L9.453125,10.8359375 C10.7309245,11.3359375 11.3975911,12.613737 10.953125,13.7804036 C10.5086589,14.9470703 9.17532552,15.5026042 7.89759115,15.0582031 L0.00872395833,11.8915365 L0.00865885417,6.8359375 Z" id="Shape"></path>
                            </g>
                        </g>
                    </g>
                </g>
            </g>
        </g>
    </g>
</svg>