<?xml version="1.0" encoding="UTF-8"?>
<svg width="50px" height="50px" viewBox="0 0 50 50" version="1.1" xmlns="http://www.w3.org/2000/svg" xmlns:xlink="http://www.w3.org/1999/xlink">
    <!-- Generator: Sketch 49 (51002) - http://www.bohemiancoding.com/sketch -->
    <title>Telegram_Color</title>
    <desc>Created with Sketch.</desc>
    <defs>
        <linearGradient x1="66.67%" y1="16.67%" x2="41.67%" y2="75%" id="linearGradient-1">
            <stop stop-color="#37AEE2" offset="0%"></stop>
            <stop stop-color="#1E96C8" offset="100%"></stop>
        </linearGradient>
        <linearGradient x1="61.2346759%" y1="43.69%" x2="74.7064382%" y2="80.24%" id="linearGradient-2">
            <stop stop-color="#EFF7FC" offset="0%"></stop>
            <stop stop-color="#FFFFFF" offset="100%"></stop>
        </linearGradient>
    </defs>
    <g id="Page-1" stroke="none" stroke-width="1" fill="none" fill-rule="evenodd">
        <g id="6_Contacts" transform="translate(-535.000000, -1162.000000)">
            <g id="Group-15" transform="translate(0.000000, 846.000000)">
                <g id="Group-13" transform="translate(213.000000, 316.000000)">
                    <g id="Telegram" transform="translate(322.000000, 0.000000)">
                        <circle id="Oval" fill="url(#linearGradient-1)" cx="25" cy="25" r="25"></circle>
                        <path d="M20.4166667,36.4583333 C19.60675,36.4583333 19.744375,36.1525208 19.4650417,35.3813542 L17.0833333,27.5428958 L35.4166667,16.6666667" id="Shape" fill="#C8DAEA"></path>
                        <path d="M20.4166667,36.4583333 C21.0416667,36.4583333 21.3178125,36.1725 21.6666667,35.8333333 L25,32.5920833 L20.8420833,30.0847917" id="Shape" fill="#A9C9DD"></path>
                        <path d="M20.8416667,30.0854167 L30.9166667,37.5289583 C32.0663542,38.1633125 32.896125,37.834875 33.1825,36.4615625 L37.2835417,17.1359375 C37.7034167,15.4525625 36.6418542,14.6890625 35.542,15.1883958 L11.46075,24.4740208 C9.81697917,25.1333333 9.8265625,26.0503958 11.161125,26.4590208 L17.3409167,28.3878333 L31.6477917,19.3617917 C32.3231875,18.9522292 32.9430625,19.1724188 32.4342917,19.6239583" id="Shape" fill="url(#linearGradient-2)"></path>
                    </g>
                </g>
            </g>
        </g>
    </g>
</svg>