<?xml version="1.0" encoding="UTF-8"?>
<svg width="50px" height="49px" viewBox="0 0 50 49" version="1.1" xmlns="http://www.w3.org/2000/svg" xmlns:xlink="http://www.w3.org/1999/xlink">
    <!-- Generator: Sketch 49 (51002) - http://www.bohemiancoding.com/sketch -->
    <title>Youtube_Color</title>
    <desc>Created with Sketch.</desc>
    <defs></defs>
    <g id="Page-1" stroke="none" stroke-width="1" fill="none" fill-rule="evenodd">
        <g id="6_Contacts" transform="translate(-375.000000, -1163.000000)">
            <g id="Group-15" transform="translate(0.000000, 846.000000)">
                <g id="Group-13" transform="translate(213.000000, 316.000000)">
                    <g id="Youtube" transform="translate(162.000000, 1.000000)">
                        <path d="M0,24.5 C0,10.969023 11.0253002,0 24.6256989,0 C38.2260975,0 49.2513977,10.969023 49.2513977,24.5 C49.2513977,38.030977 38.2260975,49 24.6256989,49 C11.0253002,49 0,38.030977 0,24.5 Z" id="back" fill="#CE1312"></path>
                        <path d="M37.442623,19.568432 C37.442623,19.568432 37.1860656,17.7282379 36.4,16.9178848 C35.402459,15.853827 34.2844262,15.8488196 33.7721311,15.7870625 C30.1016393,15.5166667 24.5959016,15.5166667 24.5959016,15.5166667 L24.5844262,15.5166667 C24.5844262,15.5166667 19.0786885,15.5166667 15.4081967,15.7870625 C14.895082,15.8488196 13.7778689,15.853827 12.7795082,16.9178848 C11.9934426,17.7282379 11.7377049,19.568432 11.7377049,19.568432 C11.7377049,19.568432 11.4754098,21.7299299 11.4754098,23.8905933 L11.4754098,25.9168933 C11.4754098,28.0783912 11.7377049,30.2390545 11.7377049,30.2390545 C11.7377049,30.2390545 11.9934426,32.0792487 12.7795082,32.8896018 C13.7778689,33.9536596 15.0885246,33.9202774 15.6721311,34.0312732 C17.7704918,34.2365738 24.5901639,34.3 24.5901639,34.3 C24.5901639,34.3 30.1016393,34.2916544 33.7721311,34.0212586 C34.2844262,33.9586669 35.402459,33.9536596 36.4,32.8896018 C37.1860656,32.0792487 37.442623,30.2390545 37.442623,30.2390545 C37.442623,30.2390545 37.704918,28.0783912 37.704918,25.9168933 L37.704918,23.8905933 C37.704918,21.7299299 37.442623,19.568432 37.442623,19.568432 L37.442623,19.568432 Z" fill="#FFFFFF"></path>
                        <polygon id="Path" fill="#CE1312" points="21.8819672 28.3721546 21.8811475 20.868669 28.9680328 24.6333474"></polygon>
                    </g>
                </g>
            </g>
        </g>
    </g>
</svg>